# xmcd CD database file
#
# Track frame offsets:
#	150
#	10510
#	19622
#	34793
#	44478
#	60537
#	73513
#	84586
#	98367
#	110937
#	120937
#	133367
#	145935
#	161918
#	176965
#	191373
#	201208
#	215209
#	231478
#	243807
#
# Disc length: 3417 seconds
#
# Revision: 0
# Processed by: cddbd v1.5.2PL0 Copyright (c) Steve Scherf et al.
# Submitted via: ACXtractor (MTCDDB.DLL V2003.07.15)
#
DISCID=1f0d5714
DTITLE=Hank Koopman - Memories are made of This &
DYEAR=2001
DGENRE=Country
TTITLE0=Stay Young
TTITLE1=A Little Less of Me
TTITLE2=Twinkle Twinkle Lucky Star
TTITLE3=Round Round
TTITLE4=Mamma's Hungry Eyes
TTITLE5=The First Few Days of Love
TTITLE6=Mr Fire Eyes
TTITLE7=Melodie D'Amour
TTITLE8=I'd Rather Be Sorry
TTITLE9=I'm Getting Good at Missing You
TTITLE10=Dark Moon
TTITLE11=I Sure Would Like you for a Friend
TTITLE12=Chiseled in Stone
TTITLE13=Memories are Made of This
TTITLE14=The Kiok Van Arne Muiden
TTITLE15=Aloha Oe
TTITLE16=The Way I Am
TTITLE17=Payday Again
TTITLE18=Blockade
TTITLE19=Food Blues
EXTD=ID3G:   2 YEAR: 2001
EXTT0=
EXTT1=
EXTT2=
EXTT3=
EXTT4=
EXTT5=
EXTT6=
EXTT7=
EXTT8=
EXTT9=
EXTT10=
EXTT11=
EXTT12=
EXTT13=
EXTT14=
EXTT15=
EXTT16=
EXTT17=
EXTT18=
EXTT19=
PLAYORDER=
